<?xml version="1.0" encoding="UTF-8"?>
<svg id="Layer_1" data-name="Layer 1" xmlns="http://www.w3.org/2000/svg" viewBox="0 0 296.16 66">
  <defs>
    <style>
      .cls-1 {
        fill: #1c88ed;
      }

      .cls-2 {
        fill: #1e3eaf;
      }
    </style>
  </defs>
  <g>
    <g>
      <polygon class="cls-1" points="168.99 11.7 166.58 11.7 166.58 30.66 169.99 30.66 169.99 22.72 178.57 22.72 178.57 19.67 169.99 19.67 169.99 14.78 179.03 14.78 179.03 11.7 169.99 11.7 168.99 11.7"/>
      <path class="cls-1" d="M190.36,18.22c-.95-.57-2.03-.85-3.25-.85s-2.4.3-3.43.89c-1.03.59-1.85,1.4-2.46,2.42-.61,1.02-.92,2.17-.92,3.47s.31,2.46.93,3.48c.62,1.03,1.45,1.83,2.5,2.42,1.04.59,2.24.88,3.59.88,1.03,0,1.99-.19,2.89-.57.9-.38,1.67-.94,2.32-1.67l-2-2c-.4.45-.87.79-1.43,1.01-.56.23-1.17.34-1.84.34-.74,0-1.4-.16-1.97-.49-.58-.32-1.02-.78-1.34-1.36-.14-.26-.25-.54-.32-.85h9.6c.05-.29.1-.55.14-.78.04-.23.05-.47.05-.7,0-1.26-.27-2.37-.82-3.34-.55-.96-1.3-1.73-2.24-2.3ZM183.64,22.8c.07-.28.17-.53.29-.77.3-.57.72-1.01,1.26-1.32.54-.31,1.17-.47,1.89-.47s1.27.14,1.76.42c.49.28.86.68,1.11,1.22.13.28.23.59.31.93h-6.61Z"/>
      <path class="cls-1" d="M205.17,18.94c-.36-.38-.78-.7-1.26-.96-.75-.41-1.62-.61-2.61-.61-1.19,0-2.26.3-3.2.9-.95.6-1.69,1.41-2.24,2.43-.55,1.02-.82,2.17-.82,3.47s.27,2.43.82,3.44c.55,1.02,1.3,1.82,2.26,2.42.95.59,2.02.89,3.19.89.97,0,1.84-.2,2.61-.61.49-.26.92-.59,1.28-.98v1.31h3.24V11.7h-3.27v7.24ZM204.93,26.1c-.29.56-.69,1-1.22,1.31-.52.32-1.13.47-1.84.47s-1.27-.16-1.8-.47c-.53-.31-.95-.76-1.26-1.32-.31-.57-.46-1.21-.46-1.93s.15-1.36.46-1.93c.31-.57.72-1.01,1.24-1.32.52-.31,1.13-.47,1.81-.47s1.29.16,1.81.47c.52.32.93.75,1.23,1.31.3.56.45,1.21.45,1.94s-.14,1.39-.43,1.94Z"/>
      <path class="cls-1" d="M220.37,18.22c-.95-.57-2.03-.85-3.25-.85s-2.4.3-3.43.89c-1.03.59-1.85,1.4-2.46,2.42-.61,1.02-.92,2.17-.92,3.47s.31,2.46.93,3.48c.62,1.03,1.45,1.83,2.5,2.42,1.04.59,2.24.88,3.59.88,1.03,0,1.99-.19,2.89-.57.9-.38,1.67-.94,2.32-1.67l-2-2c-.4.45-.87.79-1.43,1.01-.56.23-1.17.34-1.84.34-.74,0-1.4-.16-1.97-.49-.58-.32-1.02-.78-1.34-1.36-.14-.26-.25-.54-.32-.85h9.6c.05-.29.1-.55.14-.78.04-.23.05-.47.05-.7,0-1.26-.27-2.37-.82-3.34-.55-.96-1.3-1.73-2.24-2.3ZM213.65,22.8c.07-.28.17-.53.29-.77.3-.57.72-1.01,1.26-1.32.54-.31,1.17-.47,1.89-.47s1.27.14,1.76.42c.49.28.86.68,1.11,1.22.13.28.23.59.31.93h-6.61Z"/>
      <path class="cls-1" d="M234.14,17.71c-.52-.23-1.1-.34-1.73-.34-1.46,0-2.56.49-3.31,1.46-.01.02-.03.04-.04.06v-1.24h-3.3v13.02h3.3v-7.21c0-1.04.25-1.82.76-2.32.5-.5,1.14-.76,1.92-.76.38,0,.71.05.99.16.28.11.54.29.77.54l2.08-2.27c-.43-.5-.91-.87-1.43-1.09Z"/>
      <path class="cls-1" d="M245.86,19.01c-.37-.41-.8-.76-1.31-1.03-.75-.41-1.61-.61-2.58-.61-1.17,0-2.23.3-3.19.9-.95.6-1.71,1.42-2.26,2.44-.55,1.03-.82,2.18-.82,3.46s.27,2.43.82,3.44c.55,1.02,1.3,1.82,2.24,2.42.95.59,2.01.89,3.2.89.95,0,1.81-.2,2.57-.61.51-.28.95-.62,1.32-1.04v1.37h3.24v-13.02h-3.24v1.37ZM245.05,26.84c-.65.69-1.49,1.04-2.51,1.04-.68,0-1.29-.16-1.81-.47-.52-.31-.93-.76-1.23-1.32-.3-.57-.45-1.21-.45-1.93s.15-1.36.46-1.93c.31-.57.72-1.01,1.24-1.32.52-.31,1.12-.47,1.78-.47.7,0,1.31.16,1.84.47.52.32.93.76,1.22,1.32.29.57.43,1.21.43,1.93,0,1.1-.32,1.99-.97,2.69Z"/>
      <polygon class="cls-1" points="257.62 11.7 254.33 11.7 254.33 17.64 251.25 17.64 251.25 20.56 254.33 20.56 254.33 30.66 257.62 30.66 257.62 20.56 260.67 20.56 260.67 17.64 257.62 17.64 257.62 11.7"/>
      <path class="cls-1" d="M264.46,11.59c-.54,0-.99.18-1.35.55-.36.37-.54.82-.54,1.36s.18,1,.54,1.36c.36.37.81.55,1.35.55s1.01-.18,1.36-.55c.35-.37.53-.82.53-1.36s-.18-.99-.53-1.36c-.35-.37-.81-.55-1.36-.55Z"/>
      <rect class="cls-1" x="262.84" y="17.64" width="3.24" height="13.02"/>
      <path class="cls-1" d="M278.69,18.26c-1.04-.59-2.2-.89-3.5-.89s-2.46.3-3.5.9c-1.04.6-1.86,1.41-2.48,2.42-.62,1.01-.93,2.15-.93,3.43s.31,2.43.93,3.46c.62,1.03,1.45,1.84,2.48,2.44,1.04.6,2.2.9,3.5.9s2.46-.3,3.5-.9c1.04-.6,1.86-1.42,2.47-2.44.61-1.03.92-2.18.92-3.46s-.31-2.43-.92-3.44c-.61-1.02-1.44-1.82-2.47-2.42ZM278.3,26.06c-.31.57-.73,1.01-1.26,1.32-.53.32-1.15.47-1.85.47s-1.3-.16-1.84-.47c-.54-.31-.96-.76-1.27-1.32-.31-.57-.46-1.21-.46-1.93s.15-1.33.46-1.88c.31-.55.73-.98,1.27-1.3.54-.31,1.15-.47,1.84-.47s1.32.15,1.85.46c.53.31.95.74,1.26,1.3.31.56.46,1.19.46,1.89s-.15,1.36-.46,1.93Z"/>
      <path class="cls-1" d="M293.73,18.12c-.76-.49-1.62-.74-2.59-.74s-1.82.22-2.59.66c-.45.26-.85.57-1.19.94v-1.34h-3.3v13.02h3.3v-7.48c0-.54.11-1.02.34-1.44.22-.42.55-.76.97-1,.42-.24.91-.36,1.47-.36.81,0,1.47.27,1.99.8.51.53.77,1.2.77,2.01v7.48h3.27v-8.21c0-.85-.22-1.66-.65-2.43-.43-.77-1.03-1.41-1.78-1.9Z"/>
      <path class="cls-1" d="M79.09,30.19c.86.44,1.85.66,2.96.66,1.25,0,2.34-.27,3.25-.81.91-.54,1.63-1.29,2.14-2.26.51-.97.77-2.11.77-3.41v-12.83s-3.4,0-3.4,0l.02,13.07c0,.65-.12,1.2-.35,1.65-.23.46-.56.81-.98,1.05-.42.24-.93.36-1.52.36-.56,0-1.06-.13-1.52-.38-.46-.25-.84-.6-1.14-1.05l-2.37,2.15c.57.75,1.29,1.35,2.15,1.79Z"/>
      <path class="cls-1" d="M93.52,29.98c1.04.58,2.23.87,3.57.87,1.02,0,1.98-.19,2.88-.56.9-.38,1.67-.93,2.31-1.67l-1.99-1.99c-.39.45-.87.78-1.42,1.01-.56.22-1.17.34-1.83.34-.73,0-1.39-.16-1.96-.48-.57-.32-1.02-.77-1.33-1.36-.14-.26-.25-.54-.32-.85h9.56c.05-.29.1-.55.13-.78.04-.23.05-.47.05-.7,0-1.25-.27-2.36-.82-3.32-.55-.96-1.29-1.72-2.23-2.28-.94-.56-2.02-.85-3.24-.85s-2.39.3-3.41.89c-1.02.59-1.84,1.39-2.45,2.41-.61,1.01-.91,2.16-.91,3.45s.31,2.45.93,3.47c.62,1.02,1.45,1.82,2.49,2.41ZM93.72,22c.3-.56.71-1,1.25-1.32.54-.31,1.16-.47,1.88-.47s1.26.14,1.75.42c.48.28.85.68,1.1,1.21.13.28.23.59.31.93h-6.58c.07-.27.17-.53.29-.77Z"/>
      <polygon class="cls-1" points="110.71 30.58 113.61 22.92 116.49 30.58 118.64 30.58 123.67 17.63 120.34 17.63 117.52 25.67 114.66 17.63 112.54 17.63 109.71 25.67 106.87 17.63 103.56 17.63 108.59 30.58 110.71 30.58"/>
      <path class="cls-1" d="M127.05,15.42c.56,0,1.01-.18,1.36-.55.35-.37.52-.82.52-1.36s-.17-.99-.52-1.36c-.35-.37-.8-.55-1.36-.55s-.99.18-1.34.55c-.36.37-.54.82-.54,1.36s.18.99.54,1.36c.36.37.81.55,1.34.55Z"/>
      <rect class="cls-1" x="125.44" y="17.63" width="3.23" height="12.96"/>
      <path class="cls-1" d="M139.9,29.76c.9-.74,1.34-1.75,1.34-3.02,0-.79-.16-1.43-.47-1.92-.31-.49-.73-.89-1.24-1.2-.51-.3-1.04-.54-1.6-.71-.56-.17-1.08-.32-1.59-.46-.5-.13-.91-.3-1.24-.5-.32-.2-.48-.45-.48-.75,0-.34.15-.59.46-.75.3-.16.73-.24,1.29-.24.59,0,1.13.11,1.63.32.49.21.93.56,1.3,1.05l2.02-1.99c-.56-.75-1.25-1.32-2.08-1.69-.83-.38-1.78-.56-2.84-.56s-1.87.17-2.59.51c-.73.34-1.29.81-1.68,1.4-.39.59-.59,1.31-.59,2.15,0,.77.16,1.4.47,1.9.31.49.73.88,1.24,1.16.51.28,1.04.5,1.59.66.55.16,1.08.31,1.59.46.51.14.92.32,1.24.52.31.21.47.5.47.87s-.16.63-.47.81c-.31.18-.78.27-1.41.27-.72,0-1.37-.13-1.95-.39-.58-.26-1.11-.64-1.57-1.14l-1.99,1.99c.43.5.93.93,1.51,1.28.57.35,1.2.62,1.89.82.69.2,1.39.3,2.11.3,1.54,0,2.76-.37,3.66-1.12Z"/>
      <path class="cls-1" d="M146.73,23.14c0-.54.11-1.02.34-1.44.22-.42.55-.75.97-.99.42-.24.91-.36,1.46-.36.81,0,1.46.26,1.98.79.51.53.77,1.2.77,2v7.45h3.25v-8.17c0-.99-.21-1.85-.65-2.61-.43-.75-1.03-1.35-1.79-1.79-.76-.44-1.63-.66-2.59-.66s-1.83.22-2.59.66c-.44.25-.82.56-1.14.91v-7.38h-3.28v19.03h3.28v-7.45Z"/>
    </g>
    <g>
      <path class="cls-1" d="M61.18,31.05l-.02-.2c-.26-3.4-1.12-6.68-2.55-9.76-1.4-2.99-3.29-5.69-5.64-8.03-2.34-2.34-5.05-4.23-8.04-5.63-3.08-1.44-6.37-2.29-9.77-2.55-.71-.05-1.44-.08-2.16-.08s-1.45.03-2.16.08c-3.4.26-6.69,1.11-9.77,2.55-2.99,1.39-5.7,3.29-8.04,5.63-2.34,2.34-4.24,5.04-5.64,8.03-1.44,3.08-2.3,6.36-2.55,9.76l-.02.2H0l.02-.23c.52-7.97,3.93-15.49,9.61-21.15S22.83.59,30.81.07c.72-.05,1.46-.07,2.19-.07s1.46.02,2.19.07c7.99.52,15.51,3.93,21.19,9.59,5.68,5.67,9.09,13.18,9.61,21.15l.02.23h-4.82Z"/>
      <path class="cls-2" d="M33,66c-.73,0-1.46-.02-2.19-.07-7.99-.52-15.51-3.93-21.19-9.59C3.95,50.67.54,43.16.02,35.18l-.02-.23h4.82l.02.2c.26,3.4,1.12,6.68,2.55,9.76,1.4,2.99,3.29,5.69,5.64,8.03,2.34,2.34,5.05,4.23,8.04,5.63,3.01,1.4,6.22,2.25,9.54,2.53v-3.95c-2.79-.27-5.49-1.02-8.02-2.22-2.52-1.19-4.8-2.8-6.77-4.77-1.98-1.97-3.59-4.25-4.78-6.76-1.23-2.58-1.98-5.34-2.24-8.2l-.02-.24h4.83l.02.19c.24,2.22.86,4.36,1.84,6.36.95,1.95,2.21,3.72,3.75,5.25,1.54,1.54,3.31,2.8,5.26,3.75,1.93.94,3.99,1.55,6.13,1.81v-3.97c-1.61-.25-3.16-.74-4.62-1.48-1.47-.74-2.81-1.71-3.99-2.88s-2.14-2.51-2.89-3.98c-.76-1.51-1.27-3.12-1.51-4.79l-.04-.25h4.87l.04.17c.42,2.07,1.43,3.95,2.93,5.45s3.23,2.42,5.2,2.87v-8.49h4.78v8.49c1.97-.45,3.76-1.44,5.2-2.87,1.5-1.5,2.51-3.38,2.93-5.45l.04-.17h4.87l-.04.25c-.24,1.67-.75,3.29-1.51,4.79-.74,1.47-1.72,2.81-2.89,3.98s-2.51,2.14-3.99,2.88c-1.45.73-3.01,1.23-4.62,1.48v3.97c2.13-.26,4.19-.87,6.13-1.81,1.95-.95,3.72-2.21,5.26-3.75,1.54-1.54,2.8-3.31,3.75-5.25.98-2,1.59-4.14,1.84-6.36l.02-.19h4.83l-.02.24c-.26,2.86-1.01,5.62-2.24,8.2-1.19,2.51-2.8,4.79-4.78,6.76-1.98,1.97-4.26,3.58-6.77,4.77-2.53,1.2-5.23,1.94-8.02,2.22v3.95c3.32-.28,6.53-1.13,9.54-2.53,2.99-1.39,5.7-3.29,8.04-5.63,2.34-2.34,4.24-5.04,5.64-8.03,1.44-3.08,2.3-6.36,2.55-9.76l.02-.2h4.82l-.02.23c-.52,7.97-3.93,15.49-9.61,21.15-5.68,5.67-13.2,9.07-21.19,9.59-.72.05-1.46.07-2.19.07Z"/>
      <path class="cls-1" d="M52.39,31.05l-.02-.19c-.24-2.22-.86-4.36-1.84-6.36-.95-1.95-2.21-3.72-3.75-5.25-1.54-1.54-3.31-2.8-5.26-3.75-2-.97-4.15-1.59-6.37-1.83-.71-.08-1.43-.12-2.15-.12s-1.44.04-2.15.12c-2.22.24-4.36.86-6.37,1.83-1.95.95-3.72,2.21-5.26,3.75-1.54,1.54-2.8,3.31-3.75,5.25-.98,2-1.59,4.14-1.84,6.36l-.02.19h-4.83l.02-.24c.26-2.86,1.01-5.62,2.24-8.2,1.19-2.51,2.8-4.79,4.78-6.76,1.98-1.97,4.26-3.58,6.77-4.77,2.59-1.23,5.35-1.98,8.22-2.23.72-.06,1.46-.1,2.19-.1s1.47.03,2.19.1c2.86.26,5.63,1.01,8.22,2.23,2.52,1.19,4.8,2.8,6.77,4.77,1.98,1.97,3.59,4.25,4.78,6.76,1.23,2.58,1.98,5.34,2.24,8.2l.02.24h-4.83Z"/>
      <path class="cls-1" d="M36.48,26.35c0,.52-.08,1.03-.23,1.5-.64,2.02-2.53,3.49-4.77,3.49-.34,0-.68-.03-1-.1.8-.56,1.32-1.48,1.32-2.53,0-.77-.28-1.48-.75-2.02-.07-.08-.13-.15-.21-.22-.79-.88-1.28-2.05-1.28-3.33,0-.52.08-1.03.23-1.5.64-2.02,2.53-3.49,4.77-3.49.34,0,.68.03,1,.1-.8.56-1.32,1.48-1.32,2.53,0,.77.28,1.48.75,2.02.07.08.13.15.21.22.79.88,1.28,2.05,1.28,3.33Z"/>
    </g>
  </g>
  <g>
    <path class="cls-2" d="M80.86,47.91c-.73,0-1.39-.18-1.98-.52-.59-.35-1.06-.82-1.41-1.42-.35-.6-.52-1.27-.52-2.01s.17-1.39.52-1.98c.35-.59.82-1.06,1.41-1.41.59-.35,1.25-.52,1.98-.52s1.41.17,2.01.52c.6.34,1.07.81,1.42,1.41s.52,1.25.52,1.98-.17,1.41-.52,2.01c-.35.6-.82,1.07-1.42,1.42-.6.35-1.27.52-2.01.52ZM80.86,46.53c.49,0,.92-.11,1.29-.33.37-.22.66-.53.87-.91.21-.39.32-.83.32-1.32s-.11-.92-.33-1.3-.51-.68-.87-.9c-.37-.22-.79-.32-1.28-.32s-.88.11-1.25.32c-.37.22-.66.52-.87.9-.21.38-.32.82-.32,1.3s.11.94.32,1.32c.21.39.5.69.87.91.37.22.79.33,1.25.33Z"/>
    <path class="cls-2" d="M85.38,41.51v-1.3h5.68v1.3h-5.68ZM87.22,47.75v-8.67c0-.55.12-1.04.36-1.46.24-.42.58-.76,1.02-1,.43-.24.94-.36,1.51-.36.43,0,.81.07,1.13.22s.61.37.87.65l-.94.92c-.14-.15-.29-.26-.46-.33-.17-.07-.38-.11-.62-.11-.45,0-.81.13-1.06.39-.25.26-.37.62-.37,1.09v8.67h-1.44Z"/>
    <path class="cls-2" d="M94.76,47.75l4.52-11.02h1.08l4.49,11.02h-1.62l-3.71-9.32h.57l-3.73,9.32h-1.6ZM96.92,45.26v-1.3h5.79v1.3h-5.79Z"/>
    <path class="cls-2" d="M106.38,47.75v-7.54h1.43v7.54h-1.43ZM107.81,43.47l-.54-.25c0-.96.22-1.73.67-2.3.44-.57,1.08-.86,1.92-.86.38,0,.72.07,1.03.2.31.13.59.35.86.66l-.94.97c-.16-.17-.33-.29-.52-.36s-.41-.11-.67-.11c-.53,0-.96.17-1.3.51-.34.34-.51.86-.51,1.56Z"/>
    <path class="cls-2" d="M112.74,47.75v-11.33h1.43v11.33h-1.43ZM117.57,47.75l-3.52-3.86,3.48-3.68h1.75l-3.89,4.06.06-.83,3.97,4.3h-1.84Z"/>
    <path class="cls-2" d="M123.42,47.91c-.7,0-1.32-.17-1.88-.52-.56-.34-.99-.81-1.32-1.4-.32-.59-.48-1.26-.48-2s.16-1.41.48-2c.32-.59.76-1.06,1.32-1.41.56-.35,1.18-.52,1.88-.52.57,0,1.08.12,1.53.36.45.24.81.57,1.09.98.27.42.43.9.46,1.45v2.27c-.03.54-.18,1.02-.45,1.44s-.63.75-1.09.99-.97.36-1.54.36ZM123.66,46.56c.71,0,1.28-.24,1.71-.72.43-.48.65-1.1.65-1.85,0-.51-.1-.96-.3-1.35-.2-.39-.48-.69-.83-.91-.35-.22-.77-.32-1.25-.32s-.9.11-1.26.33c-.36.22-.65.53-.86.91-.21.39-.31.83-.31,1.33s.1.95.31,1.34c.21.39.49.69.87.91.37.22.79.33,1.27.33ZM125.93,47.75v-2.03l.27-1.84-.27-1.82v-1.84h1.44v7.54h-1.44Z"/>
    <path class="cls-2" d="M129.46,47.75v-7.54h1.43v7.54h-1.43ZM134.77,47.75v-4.4c0-.57-.18-1.04-.53-1.41-.35-.37-.82-.56-1.39-.56-.38,0-.72.08-1.02.25-.3.17-.53.4-.7.7-.17.3-.25.64-.25,1.02l-.59-.33c0-.57.13-1.08.38-1.52.25-.44.61-.8,1.06-1.06s.97-.39,1.54-.39,1.08.14,1.52.43c.44.29.79.66,1.04,1.12.25.46.38.95.38,1.47v4.68h-1.44Z"/>
    <path class="cls-2" d="M140.55,47.91c-.42,0-.82-.06-1.21-.17s-.73-.27-1.04-.48c-.31-.21-.58-.45-.82-.74l.92-.92c.28.34.59.59.95.75.36.16.76.25,1.21.25s.79-.08,1.03-.23c.24-.15.36-.37.36-.64s-.1-.49-.29-.64c-.2-.15-.45-.28-.75-.38-.31-.1-.63-.2-.98-.29s-.67-.22-.98-.38c-.31-.16-.56-.38-.75-.66-.2-.28-.29-.65-.29-1.1s.11-.85.32-1.18c.22-.33.53-.59.93-.77s.88-.27,1.44-.27c.59,0,1.12.1,1.58.31.46.21.84.52,1.14.93l-.92.92c-.22-.28-.49-.49-.79-.64s-.66-.22-1.05-.22c-.41,0-.73.07-.94.22s-.32.34-.32.59.09.45.29.59c.19.14.44.25.75.35.31.1.64.19.98.29.34.1.66.24.97.4.31.17.56.4.75.68.2.29.29.66.29,1.13,0,.71-.25,1.27-.75,1.68s-1.18.62-2.02.62Z"/>
    <path class="cls-2" d="M148.14,47.91c-.7,0-1.32-.17-1.88-.52-.56-.34-.99-.81-1.32-1.4-.32-.59-.48-1.26-.48-2s.16-1.41.48-2c.32-.59.76-1.06,1.32-1.41.56-.35,1.18-.52,1.88-.52.57,0,1.08.12,1.53.36.45.24.81.57,1.09.98.27.42.43.9.46,1.45v2.27c-.03.54-.18,1.02-.45,1.44s-.63.75-1.09.99-.97.36-1.54.36ZM148.37,46.56c.71,0,1.28-.24,1.71-.72.43-.48.65-1.1.65-1.85,0-.51-.1-.96-.3-1.35-.2-.39-.48-.69-.83-.91-.35-.22-.77-.32-1.25-.32s-.9.11-1.26.33c-.36.22-.65.53-.86.91-.21.39-.31.83-.31,1.33s.1.95.31,1.34c.21.39.49.69.87.91.37.22.79.33,1.27.33ZM150.64,47.75v-2.03l.27-1.84-.27-1.82v-1.84h1.44v7.54h-1.44Z"/>
    <path class="cls-2" d="M156.56,47.91c-.42,0-.82-.06-1.21-.17s-.73-.27-1.04-.48c-.31-.21-.58-.45-.82-.74l.92-.92c.28.34.59.59.95.75.36.16.76.25,1.21.25s.79-.08,1.03-.23c.24-.15.36-.37.36-.64s-.1-.49-.29-.64c-.2-.15-.45-.28-.75-.38-.31-.1-.63-.2-.98-.29s-.67-.22-.98-.38c-.31-.16-.56-.38-.75-.66-.2-.28-.29-.65-.29-1.1s.11-.85.32-1.18c.22-.33.53-.59.93-.77s.88-.27,1.44-.27c.59,0,1.12.1,1.58.31.46.21.84.52,1.14.93l-.92.92c-.22-.28-.49-.49-.79-.64s-.66-.22-1.05-.22c-.41,0-.73.07-.94.22s-.32.34-.32.59.09.45.29.59c.19.14.44.25.75.35.31.1.64.19.98.29.34.1.66.24.97.4.31.17.56.4.75.68.2.29.29.66.29,1.13,0,.71-.25,1.27-.75,1.68s-1.18.62-2.02.62Z"/>
  </g>
</svg>